<mxfile host="app.diagrams.net" modified="2023-10-03T06:49:56.237Z" agent="Mozilla/5.0 (Windows NT 10.0; Win64; x64) AppleWebKit/537.36 (KHTML, like Gecko) Chrome/115.0.0.0 Safari/537.36" version="22.0.1" etag="iaUqaG08klFvfXH6oNg8" type="github">
  <diagram name="Trang-1" id="A4Mz2PlCntBLfnYNgryw">
    <mxGraphModel>
      <root>
        <mxCell id="0" />
        <mxCell id="1" parent="0" />
      </root>
    </mxGraphModel>
  </diagram>
</mxfile>
